# xmcd
#
# Track frame offsets:
#	150
#	13200
#	30526
#	45547
#	67288
#	84732
#	102329
#	120659
#	139371
#	152668
#	168297
#	185418
#	199471
#	217531
#	230460
#	247239
#
# Disc length: 3467 seconds
#
# Revision: 1
# Processed by: cddbd v1.5.1PL2 Copyright (c) Steve Scherf et al.
# Submitted via: EasyCDDAExtractor 9.0.0.1
#
DISCID=e50d8910
DTITLE=Various Artist - CDX Volume 398
DYEAR=2006
DGENRE=Country
TTITLE0=Gretchen Wilson - California Girls
TTITLE1=Tracy Byrd - Cheapest Motel
TTITLE2=Rodney Crowell - Come Sundown
TTITLE3=Lee Roy Parnell and Allison Parnell - Daddies and Daughters
TTITLE4=Pat Green - Feels Just Like It Should
TTITLE5=Blue County - Firecrackers and Ferris Wheels
TTITLE6=Kacey Jones - San Francisco Mable Joy
TTITLE7=Paulette Carlson - That Old Glass Case
TTITLE8=Derailers - Cold Beer Hot Women and Cool Country Music
TTITLE9=Tom Wurth - Bread On The Table
TTITLE10=Kim McAbee - Dirt Road Heartache
TTITLE11=Jeff Best - Goodbye Walk
TTITLE12=Miko Marks - Mama
TTITLE13=Jay Teter - The Pick Up Song (I Would Follow You)
TTITLE14=Ben Wasson - Ode To Baby Boomers
TTITLE15=The Saddle Sores - Ain't Goin' Down (On Broke Back Mountain)
EXTD=
EXTT0=
EXTT1=
EXTT2=
EXTT3=
EXTT4=
EXTT5=
EXTT6=
EXTT7=
EXTT8=
EXTT9=
EXTT10=
EXTT11=
EXTT12=
EXTT13=
EXTT14=
EXTT15=
PLAYORDER=
